HIERARCHY
ROOT Hips
{
	OFFSET -3.958830 18.904000 13.208200
	CHANNELS 6 Xposition Yposition Zposition Zrotation Yrotation Xrotation 
	JOINT LHipJoint
	{
		OFFSET 0.000000 0.000000 0.000000
		CHANNELS 3 Zrotation Yrotation Xrotation
		JOINT LeftUpLeg
		{
			OFFSET 1.800000 -1.400000 0.085000
			CHANNELS 3 Zrotation Yrotation Xrotation
			JOINT LeftLeg
			{
				OFFSET 2.215000 -6.000000 0.000000
				CHANNELS 3 Zrotation Yrotation Xrotation
				JOINT LeftFoot
				{
					OFFSET 2.500000 -6.900000 0.000000
					CHANNELS 3 Zrotation Yrotation Xrotation
					JOINT LeftToeBase
					{
						OFFSET 0.200000 -0.500000 1.950000
						CHANNELS 3 Zrotation Yrotation Xrotation
						End Site
						{
							OFFSET 0.000000 0.000000 0.000000
						}
					}
				}
			}
		}
	}
	JOINT RHipJoint
	{
		OFFSET 0.000000 0.000000 0.000000
		CHANNELS 3 Zrotation Yrotation Xrotation
		JOINT RightUpLeg
		{
			OFFSET -1.800000 -1.400000 0.085000
			CHANNELS 3 Zrotation Yrotation Xrotation
			JOINT RightLeg
			{
				OFFSET -2.215000 -6.000000 0.000000
				CHANNELS 3 Zrotation Yrotation Xrotation
				JOINT RightFoot
				{
					OFFSET -2.500000 -6.900000 0.000000
					CHANNELS 3 Zrotation Yrotation Xrotation
					JOINT RightToeBase
					{
						OFFSET -0.200000 -0.500000 1.950000
						CHANNELS 3 Zrotation Yrotation Xrotation
						End Site
						{
							OFFSET 0.000000 0.000000 0.000000
						}
					}
				}
			}
		}
	}
	JOINT LowerBack
	{
		OFFSET 0.000000 0.000000 0.000000
		CHANNELS 3 Zrotation Yrotation Xrotation
		JOINT Spine
		{
			OFFSET -0.087000 1.940000 -0.288900
			CHANNELS 3 Zrotation Yrotation Xrotation
			JOINT Spine1
			{
				OFFSET 0.000000 1.950000 0.060000
				CHANNELS 3 Zrotation Yrotation Xrotation
				JOINT Neck
				{
					OFFSET 0.000000 0.000000 0.000000
					CHANNELS 3 Zrotation Yrotation Xrotation
					JOINT Neck1
					{
						OFFSET 0.000000 1.600000 0.340000
						CHANNELS 3 Zrotation Yrotation Xrotation
						JOINT Head
						{
							OFFSET 0.000000 1.667000 -0.240000
							CHANNELS 3 Zrotation Yrotation Xrotation
							End Site
							{
								OFFSET 0.000000 0.000000 0.000000
							}
						}
					}
				}
				JOINT LeftShoulder
				{
					OFFSET 0.000000 0.000000 0.000000
					CHANNELS 3 Zrotation Yrotation Xrotation
					JOINT LeftArm
					{
						OFFSET 2.700000 1.550000 -0.730000
						CHANNELS 3 Zrotation Yrotation Xrotation
						JOINT LeftForeArm
						{
							OFFSET 5.450000 0.000000 0.000000
							CHANNELS 3 Zrotation Yrotation Xrotation
							JOINT LeftHand
							{
								OFFSET 3.450000 0.000000 0.000000
								CHANNELS 3 Zrotation Yrotation Xrotation
								JOINT LeftHandIndex1
								{
									OFFSET 0.750000 0.000000 0.000000
									CHANNELS 3 Zrotation Yrotation Xrotation
									End Site
									{
										OFFSET 0.000000 0.000000 0.000000
									}
								}
							}
						}
					}
				}
				JOINT RightShoulder
				{
					OFFSET 0.000000 0.000000 0.000000
					CHANNELS 3 Zrotation Yrotation Xrotation
					JOINT RightArm
					{
						OFFSET -2.700000 1.550000 -0.730000
						CHANNELS 3 Zrotation Yrotation Xrotation
						JOINT RightForeArm
						{
							OFFSET -5.450000 0.000000 0.000000
							CHANNELS 3 Zrotation Yrotation Xrotation
							JOINT RightHand
							{
								OFFSET -3.450000 0.000000 0.000000
								CHANNELS 3 Zrotation Yrotation Xrotation
								JOINT RightHandIndex1
								{
									OFFSET -0.750000 0.000000 0.000000
									CHANNELS 3 Zrotation Yrotation Xrotation
									End Site
									{
										OFFSET 0.000000 0.000000 0.000000
									}
								}
							}
						}
					}
				}
			}
		}
	}
}
MOTION
Frames: 10
Frame Time: 0.016667
-0.640280 16.769740 -1.735600 -11.661874 50.226754 -7.365707 -15.366366 12.717300 2.428271 5.588465 -4.851599 -19.565044 1.046522 5.681310 34.667338 -0.451406 6.009732 2.561291 0.435000 0.011450 0.298550 18.223968 -9.594451 4.492520 -16.691676 2.512603 -45.565472 9.130601 -3.596364 6.573249 0.095025 -2.268188 3.542951 0.120690 0.432110 0.191110 -5.057125 -1.238628 -8.403796 22.092140 -10.308577 19.724199 -12.931037 -4.071871 12.993316 5.529059 -0.045493 -11.383791 -4.633168 -10.206885 40.335702 1.590210 -15.769900 -9.448560 -7.718544 -26.682797 4.920520 -22.336571 -33.583933 -1.721502 40.360325 -34.124362 -15.394927 -3.622379 2.678829 0.519250 0.123620 -0.134990 0.278480 -3.764367 24.936941 6.691221 -0.285405 20.386755 -10.173058 -44.471467 13.429643 -8.505472 2.227463 -1.741520 -0.295780 0.372880 -0.024750 -0.081260 
-0.774380 16.789630 -1.795010 -10.826984 51.428987 -8.241412 -15.429137 12.742652 2.520049 5.185838 -5.021484 -20.084074 1.234047 5.860606 35.815680 -0.480628 6.204339 2.470984 0.434970 0.031640 0.262770 18.172618 -9.421958 4.706136 -16.259253 3.713489 -48.396364 12.084412 -5.400368 14.662738 0.049049 -2.846787 3.315481 0.160800 0.465300 0.155540 -4.883762 -1.502325 -8.523152 19.119699 -10.129628 23.946792 -11.644804 -3.966671 13.754872 5.245682 -0.952638 -11.150131 -6.347936 -9.003789 41.450080 4.575590 -16.425830 -11.873880 -9.004830 -29.753287 4.970322 -23.020023 -36.432055 -2.147000 40.163387 -32.498404 -15.353372 -3.657640 2.641785 0.543570 0.104930 -0.151110 0.265230 -1.579851 28.949969 5.832623 -0.921929 23.198665 -12.870982 -50.812177 21.005695 -13.256297 2.081002 -1.628576 -0.330940 0.443330 0.019070 -0.072760 
-0.871540 16.828290 -1.815850 -10.358217 51.794711 -9.417405 -15.472756 12.921783 2.504159 5.371300 -4.312387 -19.677099 1.481777 6.021608 35.779679 -0.373530 6.043723 2.504167 0.606780 0.278450 0.317580 18.090825 -9.462676 4.825550 -12.688830 6.332664 -49.642425 10.068915 -6.415247 24.070268 -0.130210 -3.338687 3.140448 0.238890 0.359050 0.157410 -4.723917 -1.604002 -8.564146 16.978757 -9.294551 28.271942 -10.777182 -3.050355 14.046523 5.397368 -1.202637 -11.278527 -6.791118 -8.833049 42.636863 8.420100 -17.051530 -16.443740 -11.894504 -32.688597 5.763790 -24.411544 -37.594816 -3.491543 39.197792 -35.850293 -16.217459 -3.467337 2.687798 0.561590 -0.009310 -0.023190 0.352280 1.208202 33.106876 5.002930 -1.476351 25.705731 -15.007219 -54.995986 29.985613 -18.450685 2.042726 -1.521009 -0.214500 0.422320 -0.119190 -0.011610 
-0.950950 16.881720 -1.822750 -9.935914 52.782543 -10.479625 -15.514229 13.135814 2.354800 5.082147 -3.243103 -18.217499 2.270129 5.684902 33.780075 -0.345083 5.543015 2.654742 0.690420 0.402640 0.338900 18.022798 -9.428904 5.029945 -9.921434 9.012757 -49.464770 8.654007 -7.223109 32.556379 -0.360274 -4.199879 2.839123 0.253190 0.254110 0.147420 -4.651730 -1.779303 -8.603599 15.224861 -8.972814 32.155421 -10.695304 -2.648609 14.304938 5.543542 -2.071353 -12.135242 -8.575886 -7.231574 45.425591 12.538670 -17.053370 -20.140820 -15.321848 -34.848948 7.847108 -27.467873 -35.970742 -5.990771 37.266641 -42.858106 -17.932259 -3.250133 2.701026 0.612410 -0.124960 0.079730 0.384200 4.505805 37.209202 4.274109 0.939048 28.698173 -16.371584 -59.095264 41.896564 -25.534737 1.983227 -1.234746 -0.138560 0.383150 -0.196430 0.018520 
-1.024450 16.919600 -1.808790 -10.813032 55.322130 -10.950914 -15.566267 13.106980 2.144384 4.524496 -2.526664 -18.135678 4.190143 4.683112 31.069791 -0.413043 4.898913 2.876739 0.761930 0.494620 0.359310 18.021382 -9.220597 5.369450 -8.082729 11.736404 -50.417253 8.566714 -8.476207 40.473915 -0.643364 -5.425077 2.414647 0.290040 0.224870 0.151720 -4.775413 -1.796234 -8.694053 15.015645 -9.306548 32.859220 -10.905896 -2.987345 14.973417 5.672047 -3.055942 -12.401447 -10.245195 -5.621537 46.911173 14.872630 -17.044960 -22.098820 -17.681430 -35.876816 9.420882 -31.635476 -35.165116 -7.138926 31.332823 -46.275773 -16.788703 -3.110989 2.772801 0.623130 -0.175410 0.122560 0.409510 6.841403 39.727957 3.246024 6.229667 32.692635 -15.787284 -57.550235 53.948735 -30.209648 1.821892 -0.840287 -0.095340 0.382540 -0.235550 0.048060 
-1.082710 16.957590 -1.790630 -11.467711 57.149395 -11.442423 -15.613569 13.009959 1.874534 4.188800 -1.628598 -17.439904 5.437785 4.142044 28.306409 -0.571492 4.482316 3.011435 0.777850 0.488680 0.399680 18.057721 -8.834938 5.866842 -7.458252 15.598417 -51.749022 10.237496 -10.639838 48.849165 -1.036623 -7.027053 1.876143 0.307740 0.212210 0.146840 -4.911257 -1.854190 -8.877140 15.487509 -9.653063 33.700724 -11.662888 -2.989437 15.776147 6.287310 -4.972802 -13.262890 -14.155505 -3.142104 49.908592 15.210610 -16.969960 -24.982990 -20.781153 -36.713271 11.009674 -35.905851 -33.395211 -8.787567 25.255414 -46.297648 -14.860345 -3.045102 2.779794 0.708710 -0.221010 0.154330 0.362990 9.014498 43.316098 2.489767 12.239346 36.559283 -15.611613 -43.958706 62.551858 -25.974194 1.705385 -0.611255 -0.125790 0.453430 -0.185600 0.022320 
-1.146670 16.961550 -1.775350 -11.953191 60.469761 -10.901120 -15.675205 12.728430 1.734504 3.214765 -1.519923 -18.832238 7.069629 3.498853 27.247794 -0.696553 4.204391 3.114806 0.812740 0.500090 0.462050 18.105127 -8.416787 6.342221 -8.000702 18.738250 -54.793241 12.325150 -13.820764 57.244414 -1.525924 -8.887636 1.303879 0.339900 0.184620 0.115090 -5.121783 -1.814280 -9.130564 16.143559 -10.200953 33.641205 -12.481398 -3.159919 15.932303 6.511560 -5.410651 -14.485062 -15.727248 -1.801452 53.036053 14.824280 -17.005980 -26.186560 -22.984151 -36.876491 11.202825 -39.541400 -31.763641 -9.837508 16.188967 -46.259892 -11.490740 -2.918443 2.826431 0.797650 -0.268460 0.190040 0.354720 10.873311 44.218493 4.028856 20.719994 39.740252 -15.321984 -25.404863 69.360852 -18.751868 1.608613 -0.714378 -0.176310 0.522890 -0.190640 -0.013920 
-1.224300 16.935940 -1.726070 -12.683200 64.244078 -10.143943 -15.745619 12.378105 1.737919 3.360215 -2.000251 -22.107479 7.160398 3.523968 28.146259 -0.788353 4.238436 3.055628 0.852520 0.523480 0.516820 18.138848 -7.970952 6.725834 -8.103244 21.424555 -58.573518 14.219270 -17.528401 65.070159 -2.041568 -10.759818 0.758875 0.372840 0.137350 0.106820 -5.224566 -1.864464 -9.404927 15.802882 -10.627065 33.454270 -12.226695 -3.455122 16.020201 6.231697 -5.578823 -15.517682 -16.513205 -1.160107 55.070743 14.491830 -16.999340 -27.680980 -23.511342 -36.022484 10.159224 -43.407897 -29.255258 -10.277527 10.508181 -44.195286 -9.205961 -2.854478 2.882461 0.877230 -0.313520 0.228600 0.330350 12.106692 43.244656 6.788108 30.077661 43.766364 -13.814251 -4.389762 72.166743 -8.386953 1.564223 -1.059206 -0.201450 0.550750 -0.184560 -0.051400 
-1.297980 16.873920 -1.660220 -12.788662 67.798956 -9.290878 -15.807174 12.093854 1.883663 3.825100 -2.670293 -25.282264 6.496480 3.849873 29.670077 -0.765854 4.337739 2.968538 0.979080 0.661440 0.665560 18.134061 -7.648281 6.957238 -7.945399 23.283978 -61.586965 15.387476 -21.146258 72.036952 -2.574612 -12.434894 0.314288 0.429350 0.008900 0.111630 -5.167846 -1.958638 -9.658959 14.648048 -10.296248 33.970257 -11.470234 -3.107678 16.051091 6.010088 -4.654078 -16.766189 -14.993281 -1.619589 57.162744 13.156250 -16.154060 -29.194370 -24.133818 -35.787571 9.103877 -44.774398 -27.601948 -9.701111 8.196844 -38.677857 -7.250270 -2.787164 2.922038 0.931290 -0.388160 0.339410 0.335810 13.139811 42.227844 9.519129 38.011305 46.745463 -12.132035 11.395162 72.612336 -0.236795 1.565131 -1.404845 -0.152540 0.531390 -0.282060 -0.081380 
-1.365880 16.806590 -1.602210 -14.681503 71.404119 -10.465324 -15.910368 11.807674 2.134430 4.963108 -3.448224 -29.171161 5.908573 4.410727 32.544696 -0.708356 4.831601 2.751215 0.928480 0.588480 0.674570 18.081244 -7.343388 7.038374 -7.539537 24.743959 -63.832930 15.818119 -24.875928 78.554768 -3.002969 -14.060516 -0.076952 0.378030 -0.008500 0.130640 -5.149859 -1.976298 -9.890067 14.802997 -10.104875 35.060145 -11.187708 -2.332495 15.068123 6.062993 -3.989233 -17.659158 -14.132169 -2.820608 58.611900 11.821130 -17.016470 -28.381140 -26.211013 -35.547260 8.637298 -45.197329 -25.349834 -9.755595 8.850692 -35.292186 -6.812282 -2.843864 2.889678 0.945580 -0.384860 0.348400 0.289290 14.861277 41.849592 11.048790 40.750229 45.477866 -11.662668 30.991512 73.727396 11.516951 1.486258 -1.786269 -0.152460 0.508020 -0.248930 -0.101410 
